<svg xmlns="http://www.w3.org/2000/svg" xmlns:xlink="http://www.w3.org/1999/xlink" width="307" height="57"><defs><path id="a" d="M1279.193 1038.388c1.406 0 2.806-.029 4.204-.064v.064zm-298.043 0c42.14 0 80.66-15.54 110.17-41.21h.017c10.274-9.313 23.893-14.986 38.834-14.986 14.942 0 28.56 5.673 38.834 14.985h.017c29.511 25.672 68.03 41.21 110.17 41.21zm-4.205 0v-.064c1.399.035 2.798.064 4.205.064z"/><path id="b" d="M1128.055 1025.61l-18.301-17.994a2.895 2.895 0 0 1 0-4.145 3.017 3.017 0 0 1 4.215 0l16.193 15.922 16.192-15.921a3.017 3.017 0 0 1 4.215 0 2.896 2.896 0 0 1 0 4.144l-18.3 17.994a2.997 2.997 0 0 1-2.107.858 2.998 2.998 0 0 1-2.107-.859z"/></defs><use xlink:href="#a" transform="translate(-977 -982)"/><use fill="#fff" xlink:href="#b" transform="translate(-977 -982)"/></svg>