<svg xmlns="http://www.w3.org/2000/svg" xmlns:xlink="http://www.w3.org/1999/xlink" width="286" height="65"><defs><path id="a" d="M1092.853 116.925a2.63 2.63 0 0 1-2.626-2.629v-17.57c.015-3.217 1.231-6.014 3.614-8.316 2.314-2.232 5.339-3.462 8.519-3.462 1.804 0 3.537.395 5.151 1.173 4.507 2.17 7.098 6.908 6.601 12.07-.223 2.315-1.183 4.506-2.778 6.339a12.003 12.003 0 0 1-6.011 3.749c-1.015.267-1.983.403-2.875.403-2.294 0-4.197-.86-5.821-2.63a2.379 2.379 0 0 0-.269-.238l-.82-.678v9.16a2.63 2.63 0 0 1-2.625 2.629zm9.33-26.371a6.83 6.83 0 0 0-.956.076c-3.05.464-5.376 3.06-5.53 6.17a7.096 7.096 0 0 0 .024 1.015 6.578 6.578 0 0 0 .612 2.193c1.096 2.285 3.36 3.704 5.907 3.704a6.564 6.564 0 0 0 3.94-1.318 7.517 7.517 0 0 0 .594-.51 6.884 6.884 0 0 0 .533-.577 6.601 6.601 0 0 0 1.485-4.174 6.519 6.519 0 0 0-1.715-4.434 6.61 6.61 0 0 0-1.745-1.363 6.577 6.577 0 0 0-3.109-.782zm17.836 26.37a2.63 2.63 0 0 1-2.625-2.628v-17.57c.015-3.217 1.23-6.014 3.614-8.316 2.313-2.232 5.339-3.462 8.518-3.462 1.805 0 3.538.395 5.152 1.173 4.506 2.17 7.098 6.908 6.601 12.07-.222 2.314-1.183 4.506-2.779 6.339a12.004 12.004 0 0 1-6.01 3.749c-1.015.267-1.983.403-2.875.403-2.294 0-4.198-.86-5.822-2.63a2.32 2.32 0 0 0-.272-.24l-.816-.674v9.158a2.63 2.63 0 0 1-2.625 2.629zm9.33-26.37a6.83 6.83 0 0 0-.955.076c-3.05.464-5.377 3.06-5.532 6.17a6.785 6.785 0 0 0 .026 1.016 6.604 6.604 0 0 0 .613 2.192c1.095 2.285 3.358 3.704 5.906 3.704a6.575 6.575 0 0 0 3.941-1.32 6.767 6.767 0 0 0 1.126-1.084 6.596 6.596 0 0 0 1.486-4.174 6.53 6.53 0 0 0-1.717-4.436 6.579 6.579 0 0 0-4.853-2.144zm27.376 18.214c-3.181 0-6.207-1.23-8.519-3.462-2.384-2.302-3.6-5.099-3.615-8.316V79.42a2.63 2.63 0 0 1 2.626-2.629c1.506 0 2.686 1.155 2.686 2.63v9.159l.805-.665a2.57 2.57 0 0 0 .283-.25c1.623-1.77 3.527-2.63 5.822-2.63.891 0 1.859.136 2.875.403a12.004 12.004 0 0 1 6.01 3.749c1.596 1.832 2.556 4.024 2.779 6.337.497 5.163-2.094 9.901-6.602 12.072a11.771 11.771 0 0 1-5.15 1.172zm-.12-18.764c-2.548 0-4.81 1.419-5.906 3.704a6.558 6.558 0 0 0-.646 2.87c0 .115.002.229.007.34.155 3.11 2.481 5.704 5.531 6.169.316.048.637.073.955.075a6.647 6.647 0 0 0 3.427-.938 6.575 6.575 0 0 0 2.057-1.951 6.527 6.527 0 0 0 1.128-3.69 6.596 6.596 0 0 0-2.867-5.443 6.506 6.506 0 0 0-3.643-1.136zm-72.487 18.764a2.63 2.63 0 0 1-2.625-2.629v-.744l-.533.294a3.828 3.828 0 0 1-.17.088.8.8 0 0 0-.263.177c-1.683 1.846-3.619 2.744-5.917 2.744-1.243 0-2.615-.274-4.079-.816-5.415-2.003-8.482-7.476-7.458-13.307.464-2.65 1.886-5.083 4.004-6.852a12.03 12.03 0 0 1 7.55-2.796l.146-.002c3.2 0 6.226 1.263 8.522 3.555 2.297 2.295 3.562 5.322 3.56 8.525v9.135a2.63 2.63 0 0 1-2.624 2.628zm-9.365-18.53a6.536 6.536 0 0 0-4.675 1.95 6.502 6.502 0 0 0-1.905 4.657 6.549 6.549 0 0 0 1.947 4.638 6.558 6.558 0 0 0 4.65 1.912c3.614-.026 6.538-2.99 6.52-6.609a6.566 6.566 0 0 0-1.916-4.636 6.478 6.478 0 0 0-4.613-1.912zm108.807 18.684c-6.602 0-11.974-5.377-11.974-11.986 0-6.61 5.372-11.988 11.974-11.988s11.973 5.378 11.973 11.988c0 6.609-5.371 11.986-11.973 11.986zm-.059-18.565a6.76 6.76 0 0 0-.955.075c-3.05.465-5.376 3.06-5.53 6.17a6.82 6.82 0 0 0 .025 1.017 6.593 6.593 0 0 0 .614 2.193c1.094 2.284 3.356 3.702 5.904 3.702a6.573 6.573 0 0 0 3.943-1.32 6.03 6.03 0 0 0 .37-.305 6.339 6.339 0 0 0 .754-.78 6.612 6.612 0 0 0 1.487-4.174 6.523 6.523 0 0 0-1.717-4.434 6.626 6.626 0 0 0-1.742-1.361 6.583 6.583 0 0 0-3.11-.783zm72.695 18.542c-4.197 0-7.597-1.849-8.98-3.567-.448-.558-.639-1.054-.639-1.658 0-1.395 1.177-2.573 2.57-2.573.598 0 1.124.204 1.658.64.578.472 2.715 2.013 5.912 2.013 2.254 0 3.398-.645 3.398-1.918 0-1.506-1.611-1.993-3.65-2.61l-.863-.264c-3.62-1.11-8.124-2.49-8.124-7.5 0-4.177 3.343-6.877 8.518-6.877 3.41 0 6.717 1.273 8.232 3.167.302.404.537.783.537 1.608 0 1.395-1.177 2.573-2.57 2.573-.735 0-1.21-.305-1.8-.734-1.042-.759-2.886-1.569-4.938-1.569-2.225 0-2.557 1.112-2.557 1.775 0 1.292 1.051 1.814 4.011 2.636 3.217.892 8.603 2.388 8.603 7.58 0 4.421-3.658 7.278-9.318 7.278zm-39.694-.15c-1.663 0-2.87-1.167-2.87-2.773V93.83c0-2.5-2.03-4.534-4.528-4.534a4.536 4.536 0 0 0-4.528 4.534l-.002 12.147c0 1.58-1.234 2.772-2.87 2.772-1.635 0-2.869-1.191-2.869-2.772V87.758a2.875 2.875 0 0 1 2.87-2.873c1.206 0 2.292.765 2.7 1.903l.16.441.32-.342c.998-1.05 2.836-2.302 5.918-2.302 5.605 0 8.569 3.071 8.569 8.88v12.511c0 1.555-1.26 2.772-2.87 2.772zm16.848.178c-6.727 0-9.997-3.11-9.997-9.507V87.758c0-1.545 1.255-2.8 2.798-2.8a2.802 2.802 0 0 1 2.798 2.8V99.42c0 .071.005.133.01.195l.008.108c-.01.083-.015.168-.015.254a4.38 4.38 0 0 0 4.373 4.378 4.38 4.38 0 0 0 4.373-4.378 3.27 3.27 0 0 0-.01-.225l.004-.147c.005-.061.01-.12.01-.185V87.758a2.8 2.8 0 0 1 2.797-2.8 2.802 2.802 0 0 1 2.798 2.8V99.42c0 6.398-3.254 9.507-9.947 9.507zm-226.144-24.759c2.67 2.673 3.204 9.811 3.204 9.811s-7.13-.535-9.8-3.207a4.674 4.674 0 0 1 0-6.604 4.661 4.661 0 0 1 6.596 0zm2.844-19.834v17.099s-1.172-3.555-6.047-3.555a9.706 9.706 0 0 0-6.871 2.87c-1.829 1.83-2.836 4.326-2.836 6.915 0 .753.116 1.607.283 2.323.854 3.01 3.264 4.075 3.264 4.075h-17.486V79.285c0-8.42 6.836-14.95 15.247-14.95zm14.69 26.502c-2.67 2.673-9.8 3.208-9.8 3.208s.535-7.138 3.204-9.81a4.66 4.66 0 0 1 6.596 0 4.672 4.672 0 0 1 0 6.602zm20.243 3.225h-17.51s3.578-1.362 3.578-6.242c0-2.59-1.012-5.239-2.84-7.069a9.63 9.63 0 0 0-6.853-2.839c-.753 0-1.498.116-2.213.283-3.007.856-3.855 3.269-3.855 3.269V64.334h14.328c8.411 0 15.365 6.466 15.365 14.887zm-26.967 14.34c-2.67-2.673-3.204-9.81-3.204-9.81s7.13.534 9.8 3.207a4.673 4.673 0 0 1 0 6.604 4.661 4.661 0 0 1-6.596 0zm-2.726 20.633v-17.897s1.114 3.605 5.988 3.605a9.52 9.52 0 0 0 6.812-2.82c1.829-1.83 2.836-4.226 2.836-6.815 0-.754-.116-1.408-.283-2.124-.854-3.01-3.264-3.676-3.264-3.676h17.604v13.978c0 8.421-6.954 15.75-15.365 15.75zm-14.808-27.3c2.67-2.673 9.8-3.208 9.8-3.208s-.535 7.138-3.204 9.81a4.66 4.66 0 0 1-6.596 0 4.673 4.673 0 0 1 0-6.602zm-20.125-2.427h17.392s-3.57.964-3.57 5.843c0 2.59 1.018 4.84 2.846 6.67a9.663 9.663 0 0 0 6.869 2.839c.752 0 1.528-.116 2.242-.283 3.007-.855 3.914-3.269 3.914-3.269v17.928h-14.446c-8.411 0-15.247-7.264-15.247-15.686z"/></defs><use fill="#fff" xlink:href="#a" transform="translate(-980 -64)"/></svg>